<?xml version="1.0" encoding="iso-8859-1"?>
<!-- Generator: Adobe Illustrator 19.0.0, SVG Export Plug-In . SVG Version: 6.00 Build 0)  -->
<svg version="1.1" id="Capa_1" xmlns="http://www.w3.org/2000/svg" xmlns:xlink="http://www.w3.org/1999/xlink" x="0px" y="0px"
	 viewBox="0 0 512 512" style="enable-background:new 0 0 512 512;" xml:space="preserve">
<g>
	<path style="fill:#A8A8A8;" d="M115.726,135.576H61.495c-4.989,0-9.038-4.049-9.038-9.038V18.077c0-4.989,4.049-9.038,9.038-9.038
		h54.231c4.989,0,9.038,4.049,9.038,9.038v108.461C124.764,131.527,120.724,135.576,115.726,135.576z"/>
	<path style="fill:#A8A8A8;" d="M459.186,135.576h-54.231c-4.989,0-9.038-4.049-9.038-9.038V18.077c0-4.989,4.049-9.038,9.038-9.038
		h54.231c4.989,0,9.038,4.049,9.038,9.038v108.461C468.225,131.527,464.184,135.576,459.186,135.576z"/>
	<rect x="242.264" y="108.461" style="fill:#A8A8A8;" width="36.154" height="298.268"/>
	<rect x="124.764" y="54.231" style="fill:#A8A8A8;" width="271.153" height="36.154"/>
</g>
<rect x="178.995" y="27.115" style="fill:#EA9D2D;" width="162.692" height="90.384"/>
<rect x="178.995" y="27.115" style="fill:#DA922A;" width="162.692" height="27.115"/>
<g>
	<path style="fill:#A8A8A8;" d="M469.391,485.038l-51.356,17.435c-4.727,1.609-9.861-0.931-11.461-5.649l-34.861-102.704
		c-1.609-4.727,0.931-9.861,5.649-11.461l51.356-17.435c4.727-1.609,9.861,0.931,11.461,5.649l34.861,102.704
		C476.648,478.305,474.118,483.439,469.391,485.038z"/>
	<rect x="124.764" y="415.768" style="fill:#A8A8A8;" width="271.153" height="36.154"/>
</g>
<rect x="224.187" y="316.345" style="fill:#EA9D2D;" width="72.307" height="86.01"/>
<rect x="224.187" y="361.537" style="fill:#DA922A;" width="72.307" height="26.609"/>
<rect x="197.072" y="388.653" style="fill:#FBB540;" width="126.538" height="90.384"/>
<rect x="197.072" y="451.922" style="fill:#EA9D2D;" width="126.538" height="27.115"/>
<g>
	
		<rect x="414.347" y="370.566" transform="matrix(-0.9469 0.3214 -0.3214 -0.9469 963.7448 708.5635)" style="fill:#787D82;" width="18.076" height="126.533"/>
	<polygon style="fill:#787D82;" points="424.578,437.388 370.619,410.77 378.618,394.564 416.362,413.183 434.981,375.429 
		451.196,383.428 	"/>
	<polygon style="fill:#787D82;" points="439.112,480.185 385.143,453.576 393.142,437.37 430.896,455.98 449.506,418.217 
		465.721,426.216 	"/>
	<path style="fill:#787D82;" d="M415.115,511.991c-2.73,0-5.45-0.624-7.972-1.871c-4.329-2.133-7.574-5.83-9.12-10.394
		l-34.861-102.704c-3.2-9.436,1.871-19.722,11.298-22.931l51.356-17.435c9.454-3.218,19.722,1.871,22.93,11.298l34.861,102.713
		c3.2,9.436-1.871,19.722-11.298,22.93l0,0l-51.347,17.435C419.037,511.675,417.076,511.991,415.115,511.991z M431.628,373.775
		l-51.356,17.444l34.861,102.704l51.365-17.444L431.628,373.775z"/>
</g>
<path style="fill:#A8A8A8;" d="M134.625,485.038l-51.356,17.435c-4.718,1.6-9.852-0.931-11.461-5.658L36.947,394.112
	c-1.609-4.727,0.931-9.861,5.649-11.461l51.356-17.435c4.727-1.609,9.861,0.931,11.461,5.649l34.861,102.704
	C141.883,478.305,139.352,483.439,134.625,485.038z"/>
<g>
	<path style="fill:#787D82;" d="M148.833,470.667l-34.861-102.704c-1.546-4.573-4.79-8.261-9.12-10.394
		c-4.329-2.124-9.228-2.449-13.802-0.913l-51.356,17.435c-9.436,3.209-14.507,13.494-11.298,22.931l34.861,102.704
		c1.546,4.573,4.79,8.261,9.12,10.394c2.522,1.247,5.242,1.88,7.981,1.88c1.952,0,3.923-0.325,5.83-0.967l51.356-17.435l0,0
		C146.972,490.389,152.042,480.103,148.833,470.667z M55.421,420.423l22.931,11.307l6.318,18.601l-22.931-11.307L55.421,420.423z
		 M95.471,425.927l11.307-22.93l6.309,18.583l-11.307,22.93L95.471,425.927z M96.863,373.775l1.699,5.016l-11.307,22.93
		l-7.511-22.135L96.863,373.775z M62.625,385.399l7.511,22.135l-22.931-11.307l-1.699-5.016L62.625,385.399z M80.367,493.914
		L69.946,463.22l22.93,11.307l4.61,13.576L80.367,493.914z M114.605,482.291l-4.61-13.576l11.316-22.94l10.421,30.695
		L114.605,482.291z"/>
	<path style="fill:#787D82;" d="M459.186,0h-54.231c-9.969,0-18.077,8.107-18.077,18.077v108.461
		c0,9.969,8.107,18.077,18.077,18.077h54.231c9.969,0,18.077-8.107,18.077-18.077V18.077C477.263,8.107,469.156,0,459.186,0z
		 M459.195,68.557l-18.086,18.086V67.011l18.077-18.077L459.195,68.557z M404.956,48.934l18.077,18.077v19.631l-18.077-18.077
		V48.934z M459.186,23.373L441.109,41.45V18.077h18.077V23.373z M423.032,18.077V41.45l-18.077-18.077v-5.297H423.032z
		 M404.956,94.126l18.077,18.077v14.335h-18.077V94.126z M441.109,126.538v-14.335l18.086-18.086v32.421H441.109z"/>
	<path style="fill:#787D82;" d="M115.726,0H61.495c-9.969,0-18.077,8.107-18.077,18.077v108.461c0,9.969,8.107,18.077,18.077,18.077
		h54.231c9.969,0,18.077-8.107,18.077-18.077V18.077C133.803,8.107,125.695,0,115.726,0z M115.735,68.557L97.649,86.642V67.011
		l18.077-18.077L115.735,68.557z M61.495,48.934l18.077,18.077v19.631L61.495,68.566V48.934z M115.726,23.373L97.649,41.45V18.077
		h18.077V23.373z M79.572,18.077V41.45L61.495,23.373v-5.297H79.572z M61.495,94.126l18.077,18.077v14.335H61.495V94.126z
		 M97.649,126.538v-14.335l18.086-18.086v32.421H97.649z"/>
</g>
<g>
</g>
<g>
</g>
<g>
</g>
<g>
</g>
<g>
</g>
<g>
</g>
<g>
</g>
<g>
</g>
<g>
</g>
<g>
</g>
<g>
</g>
<g>
</g>
<g>
</g>
<g>
</g>
<g>
</g>
</svg>
