<?xml version="1.0" encoding="iso-8859-1"?>
<!-- Generator: Adobe Illustrator 19.0.0, SVG Export Plug-In . SVG Version: 6.00 Build 0)  -->
<svg version="1.1" id="Capa_1" xmlns="http://www.w3.org/2000/svg" xmlns:xlink="http://www.w3.org/1999/xlink" x="0px" y="0px"
	 viewBox="0 0 513.088 513.088" style="enable-background:new 0 0 513.088 513.088;" xml:space="preserve">
<g>
	<path style="fill:#546E7A;" d="M266.67,384.348H149.336c-5.891,0-10.667-4.776-10.667-10.667c0-5.891,4.776-10.667,10.667-10.667
		h104.043l-37.931-170.667h-153.6l-26.475,119.68c-1.278,5.756-6.98,9.385-12.736,8.107s-9.385-6.98-8.107-12.736l0,0l28.373-128
		c1.073-4.9,5.416-8.39,10.432-8.384h170.667c5.002,0.002,9.33,3.479,10.411,8.363l42.667,192
		c1.272,5.752-2.359,11.446-8.111,12.719C268.214,384.263,267.443,384.347,266.67,384.348z"/>
	<path style="fill:#546E7A;" d="M202.67,384.348c-5.062-0.009-9.42-3.574-10.432-8.533l-21.333-106.667
		c-1.172-5.773,2.557-11.404,8.331-12.576c0.018-0.004,0.036-0.007,0.053-0.011c5.778-1.15,11.394,2.602,12.543,8.38
		c0,0.001,0.001,0.003,0.001,0.004l21.333,106.667c1.15,5.778-2.602,11.394-8.38,12.543c-0.001,0-0.003,0.001-0.004,0.001
		C204.086,384.293,203.378,384.357,202.67,384.348z"/>
	<path style="fill:#546E7A;" d="M202.691,277.681h-42.667c-5.891,0-10.667-4.776-10.667-10.667s4.776-10.667,10.667-10.667h42.667
		c5.891,0,10.667,4.776,10.667,10.667S208.582,277.681,202.691,277.681z"/>
</g>
<path style="fill:#FFC107;" d="M158.872,368.924l-32-64c-1.808-3.609-5.499-5.888-9.536-5.888H24.963
	c-4.995,0-9.322,3.466-10.411,8.341l-14.293,64c-1.284,5.749,2.335,11.451,8.085,12.735c0.764,0.171,1.544,0.257,2.326,0.257
	h138.667c5.891,0,10.667-4.776,10.666-10.667C160.002,372.043,159.615,370.407,158.872,368.924L158.872,368.924z"/>
<path style="fill:#CFD8DC;" d="M309.358,416.348h-256c-23.564,0-42.667,19.103-42.667,42.667c0,23.564,19.103,42.667,42.667,42.667
	h256c23.564,0,42.667-19.103,42.667-42.667C352.024,435.45,332.922,416.348,309.358,416.348z"/>
<g>
	<path style="fill:#546E7A;" d="M309.358,512.348h-256c-29.455,0-53.333-23.878-53.333-53.333s23.878-53.333,53.333-53.333h256
		c29.455,0,53.333,23.878,53.333,53.333S338.813,512.348,309.358,512.348z M53.358,427.014c-17.673,0-32,14.327-32,32
		s14.327,32,32,32h256c17.673,0,32-14.327,32-32s-14.327-32-32-32H53.358z"/>
	<path style="fill:#546E7A;" d="M309.784,469.681c-5.891,0-10.667-4.776-10.667-10.667c0-5.891,4.776-10.667,10.667-10.667h0.213
		c5.891,0,10.667,4.776,10.667,10.667c0,5.891-4.776,10.667-10.667,10.667H309.784z"/>
	<path style="fill:#546E7A;" d="M139.118,469.681c-5.891,0-10.667-4.776-10.667-10.667c0-5.891,4.776-10.667,10.667-10.667h0.213
		c5.891,0,10.667,4.776,10.667,10.667c0,5.891-4.776,10.667-10.667,10.667H139.118z"/>
	<path style="fill:#546E7A;" d="M511.598,349.361L413.272,15.11C410.189,4.534,399.117-1.54,388.54,1.542
		c-6.293,1.834-11.283,6.643-13.348,12.864l-97.28,291.904c-0.729,2.188-0.729,4.553,0,6.741l21.333,64
		c1.445,4.339,5.496,7.274,10.069,7.296l0,0c4.553,0.003,8.606-2.885,10.091-7.189l96-278.72l75.584,256.917
		c1.864,5.588,7.905,8.608,13.493,6.744c5.299-1.767,8.337-7.324,6.965-12.739L511.598,349.361z"/>
</g>
<path style="fill:#FFC107;" d="M512.216,360.177c0-2.752-0.171-5.397-0.171-7.829c0.001-5.891-4.773-10.668-10.665-10.669
	c-0.717,0-1.433,0.072-2.135,0.216l-106.667,21.333c-4.967,1.014-8.534,5.384-8.533,10.453c0,32.555,49.067,53.333,74.667,53.333
	c14.872,1.105,29.54-3.982,40.533-14.059C510.506,397.83,515.183,378.799,512.216,360.177z"/>
<path style="fill:#546E7A;" d="M224.451,469.681c-5.891,0-10.667-4.776-10.667-10.667c0-5.891,4.776-10.667,10.667-10.667h0.213
	c5.891,0,10.667,4.776,10.667,10.667c0,5.891-4.776,10.667-10.667,10.667H224.451z"/>
<g>
</g>
<g>
</g>
<g>
</g>
<g>
</g>
<g>
</g>
<g>
</g>
<g>
</g>
<g>
</g>
<g>
</g>
<g>
</g>
<g>
</g>
<g>
</g>
<g>
</g>
<g>
</g>
<g>
</g>
</svg>
