<svg id="Capa_1" enable-background="new 0 0 511.993 511.993" height="512" viewBox="0 0 511.993 511.993" width="512" xmlns="http://www.w3.org/2000/svg" xmlns:xlink="http://www.w3.org/1999/xlink"><linearGradient id="SVGID_1_" gradientUnits="userSpaceOnUse" x1="316.981" x2="316.981" y1="390.997" y2="120.997"><stop offset="0" stop-color="#5558ff"/><stop offset="1" stop-color="#00c0ff"/></linearGradient><linearGradient id="SVGID_2_" gradientUnits="userSpaceOnUse" x1="255.997" x2="255.997" y1="450.997" y2="60.997"><stop offset="0" stop-color="#addcff"/><stop offset=".5028" stop-color="#eaf6ff"/><stop offset="1" stop-color="#eaf6ff"/></linearGradient><g id="Quicktime_2_"><g><g><circle cx="316.981" cy="255.997" fill="url(#SVGID_1_)" r="135"/></g></g><g><g><path d="m285.164 309.009 42.422-42.407c2.813-2.813 4.395-6.621 4.395-10.605v-60c0-8.291-6.709-15-15-15s-15 6.709-15 15v53.789l-38.027 38.013c-5.859 5.859-5.859 15.352 0 21.211s15.351 5.859 21.21-.001zm226.67-60.996c-4.16-103.125-94.893-187.017-202.295-187.017h-112.558c-8.291 0-15 6.709-15 15s6.709 15 15 15h112.559c91.494 0 168.809 70.972 172.295 158.218 3.827 93.915-71.381 171.752-164.854 171.782h-120c-8.291 0-15 6.709-15 15s6.709 15 15 15h120c110.63-.03 199.285-92.062 194.853-202.983zm-359.853 7.984c0-8.291-6.709-15-15-15h-121.981c-8.291 0-15 6.709-15 15s6.709 15 15 15h121.981c8.291 0 15-6.709 15-15zm9.14-105h-116.121c-8.291 0-15 6.709-15 15s6.709 15 15 15h116.121c8.291 0 15-6.709 15-15s-6.709-15-15-15zm0 180h-116.121c-8.291 0-15 6.709-15 15s6.709 15 15 15h116.121c8.291 0 15-6.709 15-15s-6.709-15-15-15z" fill="url(#SVGID_2_)"/></g></g></g></svg>