<?xml version="1.0" encoding="utf-8"?>
<!-- Generator: Adobe Illustrator 27.6.1, SVG Export Plug-In . SVG Version: 6.00 Build 0)  -->
<svg version="1.1" id="Layer_1" xmlns="http://www.w3.org/2000/svg" xmlns:xlink="http://www.w3.org/1999/xlink" x="0px" y="0px"
	 viewBox="0 0 1047.16 256.38" style="enable-background:new 0 0 1047.16 256.38;" xml:space="preserve">
<style type="text/css">
	.st0{fill:#003A49;}
	.st1{fill:#007934;}
	.st2{fill:#3BAD2D;}
</style>
<g id="XMLID_00000030475332952802626460000010422667983352310696_">
	<g id="XMLID_00000055702748407835748850000017833611608730068609_">
		
		<g id="XMLID_00000047773735764660778190000015469877057792247193_">
			
			<path id="XMLID_00000103264843586182647300000005020692205884633270_" class="st1" d="M123.05,99.03v-41.9H109.1v27.94
				L89.35,65.31l-9.86,9.86l29.63,29.63C113.08,101.75,117.85,99.7,123.05,99.03"/>
			<path id="XMLID_00000067945619639345637330000002068450948602198147_" class="st2" d="M103.85,110.07L74.22,80.44l-9.86,9.86
				l19.75,19.75H56.17v13.95h41.91C98.75,118.8,100.8,114.03,103.85,110.07"/>
			<path id="XMLID_00000085931405663458014980000004288376666663317395_" class="st1" d="M155.48,124.01h41.91v-13.95h-27.94
				l19.75-19.75l-9.86-9.86l-29.63,29.63C152.76,114.03,154.81,118.8,155.48,124.01"/>
			<path id="XMLID_00000050638403192734148400000005315640520880871561_" class="st2" d="M144.44,104.8l29.63-29.63l-9.86-9.86
				l-19.75,19.75V57.13h-13.95v41.91C135.71,99.7,140.48,101.75,144.44,104.8"/>
			<path id="XMLID_00000103243252958748991770000009175156219388836529_" class="st1" d="M98.08,131.46H56.17v13.95H84.1
				l-19.75,19.75l9.86,9.86l29.64-29.64C100.8,141.43,98.75,136.66,98.08,131.46"/>
			<path id="XMLID_00000136413782251493552090000014193007320620879797_" class="st2" d="M149.7,145.39l29.64,29.64l9.86-9.86
				l-19.75-19.75h27.94v-13.95h-41.91C154.81,136.66,152.76,141.43,149.7,145.39"/>
			<path id="XMLID_00000177469525396452498740000011267385474766729399_" class="st2" d="M109.12,150.66L79.49,180.3l9.86,9.86
				l19.75-19.75v27.94h13.95v-41.92C117.85,155.76,113.08,153.71,109.12,150.66"/>
			<path id="XMLID_00000160192801333239022270000008676600132907395208_" class="st1" d="M130.51,156.43v41.92h13.95v-27.94
				l19.75,19.75l9.86-9.86l-29.64-29.64C140.48,153.71,135.71,155.76,130.51,156.43"/>
		</g>
		
	</g>
</g>
</svg>
